# xmcd CD database file
#
# Track frame offsets:
#	150
#	12582
#	26495
#	36641
#	49274
#	61125
#	70947
#	82599
#	93386
#	106249
#	120127
#	131465
#	142838
#	156281
#
# Disc length: 2261 seconds
#
# Revision: 0
# Processed by: cddbd v1.5.2PL0 Copyright (c) Steve Scherf et al.
# Submitted via: CDex 1.70beta2
#
DISCID=ad08d30e
DTITLE=Con Ismael Rivera - Cortijo Y Su Combo
DYEAR=1900
DGENRE=Salsa
TTITLE0=Perfumes De Rosas
TTITLE1=Mañana Es Domingo
TTITLE2=Si Te Contara 
TTITLE3=Mi Caballito
TTITLE4=Cúcala
TTITLE5=Qué Contento Está Culembo
TTITLE6=Baila El Muñeco
TTITLE7=Oriza
TTITLE8=Quítate De La Via Perico
TTITLE9=Piedras En Mi Camino
TTITLE10=Macorina
TTITLE11=El Pájaro Chogui
TTITLE12=Moliendo Café
TTITLE13=Severa
EXTD=
EXTT0=
EXTT1=
EXTT2=
EXTT3=
EXTT4=
EXTT5=
EXTT6=
EXTT7=
EXTT8=
EXTT9=
EXTT10=
EXTT11=
EXTT12=
EXTT13=
PLAYORDER=
